Coordinates
version=1
nRows=9
nColumns=24
inDegrees=yes

Units are S.I. units (second, meters, Newtons, ...)
Angles are in degrees.

endheader
time	pelvis_tilt	pelvis_list	pelvis_rotation	pelvis_tx	pelvis_ty	pelvis_tz	hip_flexion_r	hip_adduction_r	hip_rotation_r	knee_angle_r	ankle_angle_r	subtalar_angle_r	mtp_angle_r	hip_flexion_l	hip_adduction_l	hip_rotation_l	knee_angle_l	ankle_angle_l	subtalar_angle_l	mtp_angle_l	lumbar_extension	lumbar_bending	lumbar_rotation
      3.42500000	    -13.54258579	    -12.54358477	      1.39731321	     -0.96025576	     -0.04089165	      0.48234573	     31.79513695	     15.69750308	      3.83149609	    -20.10875306	     -5.58636097	     -4.78633856	      4.43875397	     18.66116807	    -13.15085072	      3.06669355	    -61.90583405	    -34.42539085	      9.86989134	     30.72903480	      9.64224853	     13.29679147	      0.17952208
      3.43000000	    -13.45270652	    -12.57769903	      1.36044781	     -0.95267893	     -0.03973568	      0.48297678	     31.01190467	     15.86133472	      4.00796348	    -19.78780491	     -5.22889390	     -4.81790277	      4.57394644	     19.70045347	    -13.25661315	      3.01395533	    -63.16990507	    -33.83600626	      7.97009191	     29.41320988	      9.56383664	     13.28213361	      0.30105031
      3.43500000	    -13.36832148	    -12.58169246	      1.33953883	     -0.94518796	     -0.03852856	      0.48355924	     30.22667330	     15.98623644	      4.27424639	    -19.45788994	     -4.90633265	     -4.82897182	      4.65567254	     20.75021135	    -13.30643298	      2.99580702	    -64.34854945	    -33.11825969	      6.19238663	     27.89267175	      9.48492597	     13.23557007	      0.38661793
      3.44000000	    -13.27862049	    -12.58140109	      1.34749447	     -0.93762972	     -0.03728760	      0.48410241	     29.42299157	     16.09563161	      4.50871839	    -19.10765865	     -4.60039962	     -4.91227986	      4.63958167	     21.77563053	    -13.33566010	      3.00870529	    -65.39720718	    -32.35128200	      4.50294204	     26.43983082	      9.42683315	     13.17691020	      0.48371859
      3.44500000	    -13.19195421	    -12.55922402	      1.36217581	     -0.93006317	     -0.03600892	      0.48460462	     28.60952199	     16.17774472	      4.76634035	    -18.74222086	     -4.31262040	     -4.99648054	      4.54791389	     22.77960533	    -13.32158474	      3.04238558	    -66.32603620	    -31.50908071	      2.96922224	     24.97908609	      9.37997295	     13.09686388	      0.59176618
      3.45000000	    -13.09498645	    -12.51987345	      1.40214052	     -0.92251865	     -0.03472076	      0.48509737	     27.78602732	     16.23698106	      5.01878281	    -18.37604809	     -4.04414922	     -5.15794916	      4.38785908	     23.75590465	    -13.27179725	      3.10336907	    -67.12702330	    -30.67991132	      1.54261254	     23.71474103	      9.32928541	     12.98886148	      0.66962565
      3.45500000	    -12.98492162	    -12.51414022	      1.46963740	     -0.91502302	     -0.03341299	      0.48552104	     26.94900408	     16.31289273	      5.22389561	    -17.98248244	     -3.87376352	     -5.36424070	      4.19936235	     24.70860524	    -13.23625056	      3.21431995	    -67.79557736	    -29.89911653	      0.19326286	     22.84585186	      9.26942706	     12.91750350	      0.74399328
      3.46000000	    -12.87991822	    -12.38472395	      1.46033737	     -0.90760878	     -0.03208320	      0.48597540	     26.11126208	     16.29227094	      5.59071214	    -17.63793491	     -3.57619871	     -5.39615768	      3.97382642	     25.60227636	    -13.07235912	      3.22587260	    -68.40394729	    -28.74190910	     -0.72883023	     21.38491795	      9.17619060	     12.73653188	      0.86385399
      3.46500000	    -12.78201162	    -12.28467402	      1.56754339	     -0.90011488	     -0.03071336	      0.48631035	     25.24904033	     16.25003718	      5.86506880	    -17.18671126	     -3.43844367	     -5.65556195	      3.74758221	     26.49465595	    -12.87064772	      3.39548017	    -68.80310760	    -27.91798894	     -1.71680139	     20.88272216	      9.14227215	     12.55787507	      0.88286985
